GSerifWideLow-325.ufo
<glyph name="four" format="1">
  <advance width="610"/>
  <unicode hex="0034"/>
  <outline>
    <contour>
      <point x="252" y="-57" type="line"/>
      <point x="252" y="-127" type="line"/>
      <point x="580" y="-127" type="line"/>
      <point x="580" y="-57" type="line"/>
      <point x="460" y="-57" type="line"/>
      <point x="460" y="-57" type="line"/>
      <point x="372" y="-57" type="line"/>
      <point x="372" y="-57" type="line"/>
    </contour>
    <contour>
      <point x="372" y="393" type="line"/>
      <point x="372" y="-127" type="line"/>
      <point x="460" y="-127" type="line"/>
      <point x="460" y="393" type="line"/>
    </contour>
    <contour>
      <point x="35" y="61" type="line"/>
      <point x="590" y="61" type="line"/>
      <point x="590" y="131" type="line"/>
      <point x="85" y="131" type="line"/>
      <point x="81" y="72" type="line"/>
      <point x="464" y="591" type="line"/>
      <point x="366" y="591" type="line"/>
      <point x="35" y="136" type="line"/>
    </contour>
  </outline>
</glyph>
<glyph name="C" format="1">
  <advance width="803"/>
  <unicode hex="0043"/>
  <outline>
    <contour>
      <point x="63" y="355" type="curve" smooth="yes"/>
      <point x="63" y="569"/>
      <point x="220" y="720"/>
      <point x="426" y="720" type="curve" smooth="yes"/>
      <point x="591" y="720"/>
      <point x="718" y="633"/>
      <point x="741" y="485" type="curve"/>
      <point x="641" y="485" type="line"/>
      <point x="621" y="591"/>
      <point x="536" y="647"/>
      <point x="426" y="647" type="curve" smooth="yes"/>
      <point x="268" y="647"/>
      <point x="155" y="531"/>
      <point x="155" y="355" type="curve" smooth="yes"/>
      <point x="155" y="179"/>
      <point x="269" y="63"/>
      <point x="426" y="63" type="curve" smooth="yes"/>
      <point x="545" y="63"/>
      <point x="629" y="132"/>
      <point x="656" y="234" type="curve"/>
      <point x="743" y="234" type="line"/>
      <point x="713" y="91"/>
      <point x="592" y="-10"/>
      <point x="426" y="-10" type="curve" smooth="yes"/>
      <point x="219" y="-10"/>
      <point x="63" y="138"/>
    </contour>
  </outline>
</glyph>
<glyph name="F" format="1">
  <advance width="605"/>
  <unicode hex="0046"/>
  <outline>
    <contour>
      <point x="153" y="0" type="line"/>
      <point x="241" y="0" type="line"/>
      <point x="241" y="710" type="line"/>
      <point x="153" y="710" type="line"/>
    </contour>
    <contour>
      <point x="213" y="387" type="line"/>
      <point x="213" y="319" type="line"/>
      <point x="490" y="319" type="line"/>
      <point x="490" y="387" type="line"/>
    </contour>
    <contour>
      <point x="572" y="710" type="line"/>
      <point x="53" y="710" type="line"/>
      <point x="53" y="640" type="line"/>
      <point x="153" y="640" type="line"/>
      <point x="153" y="640" type="line"/>
      <point x="188" y="640" type="line"/>
      <point x="492" y="640" type="line"/>
      <point x="492" y="640" type="line"/>
      <point x="492" y="522" type="line"/>
      <point x="572" y="522" type="line"/>
    </contour>
    <contour>
      <point x="351" y="70" type="line"/>
      <point x="241" y="70" type="line"/>
      <point x="241" y="70" type="line"/>
      <point x="153" y="70" type="line"/>
      <point x="153" y="70" type="line"/>
      <point x="53" y="70" type="line"/>
      <point x="53" y="0" type="line"/>
      <point x="351" y="0" type="line"/>
    </contour>
  </outline>
</glyph>
<glyph name="L" format="1">
  <advance width="650"/>
  <unicode hex="004C"/>
  <outline>
    <contour>
      <point x="153" y="0" type="line"/>
      <point x="241" y="0" type="line"/>
      <point x="241" y="710" type="line"/>
      <point x="153" y="710" type="line"/>
    </contour>
    <contour>
      <point x="53" y="710" type="line"/>
      <point x="53" y="640" type="line"/>
      <point x="153" y="640" type="line"/>
      <point x="153" y="640" type="line"/>
      <point x="241" y="640" type="line"/>
      <point x="241" y="640" type="line"/>
      <point x="341" y="640" type="line"/>
      <point x="341" y="710" type="line"/>
    </contour>
    <contour>
      <point x="53" y="0" type="line"/>
      <point x="604" y="0" type="line"/>
      <point x="604" y="220" type="line"/>
      <point x="522" y="220" type="line"/>
      <point x="522" y="70" type="line"/>
      <point x="522" y="70" type="line"/>
      <point x="202" y="70" type="line"/>
      <point x="153" y="70" type="line"/>
      <point x="153" y="70" type="line"/>
      <point x="53" y="70" type="line"/>
    </contour>
  </outline>
</glyph>
<glyph name="N" format="1">
  <advance width="815"/>
  <unicode hex="004E"/>
  <outline>
    <contour>
      <point x="482" y="710" type="line"/>
      <point x="482" y="640" type="line"/>
      <point x="587" y="640" type="line"/>
      <point x="587" y="640" type="line"/>
      <point x="667" y="640" type="line"/>
      <point x="667" y="640" type="line"/>
      <point x="762" y="640" type="line"/>
      <point x="762" y="710" type="line"/>
    </contour>
    <contour>
      <point x="283" y="710" type="line"/>
      <point x="53" y="710" type="line"/>
      <point x="53" y="640" type="line"/>
      <point x="153" y="640" type="line"/>
      <point x="153" y="640" type="line"/>
      <point x="153" y="0" type="line"/>
      <point x="233" y="0" type="line"/>
      <point x="233" y="695" type="line"/>
      <point x="214" y="666" type="line"/>
      <point x="558" y="0" type="line"/>
      <point x="667" y="0" type="line"/>
      <point x="667" y="710" type="line"/>
      <point x="587" y="710" type="line"/>
      <point x="587" y="65" type="line"/>
      <point x="612" y="69" type="line"/>
    </contour>
    <contour>
      <point x="53" y="70" type="line"/>
      <point x="53" y="0" type="line"/>
      <point x="333" y="0" type="line"/>
      <point x="333" y="70" type="line"/>
      <point x="233" y="70" type="line"/>
      <point x="233" y="70" type="line"/>
      <point x="153" y="70" type="line"/>
      <point x="153" y="70" type="line"/>
    </contour>
  </outline>
</glyph>
<glyph name="O" format="1">
  <advance width="840"/>
  <unicode hex="004F"/>
  <outline>
    <contour>
      <point x="63" y="355" type="curve" smooth="yes"/>
      <point x="63" y="142"/>
      <point x="219" y="-10"/>
      <point x="420" y="-10" type="curve" smooth="yes"/>
      <point x="621" y="-10"/>
      <point x="777" y="142"/>
      <point x="777" y="355" type="curve" smooth="yes"/>
      <point x="777" y="569"/>
      <point x="621" y="720"/>
      <point x="420" y="720" type="curve" smooth="yes"/>
      <point x="219" y="720"/>
      <point x="63" y="569"/>
    </contour>
    <contour>
      <point x="685" y="355" type="curve" smooth="yes"/>
      <point x="685" y="179"/>
      <point x="573" y="63"/>
      <point x="420" y="63" type="curve" smooth="yes"/>
      <point x="267" y="63"/>
      <point x="155" y="179"/>
      <point x="155" y="355" type="curve" smooth="yes"/>
      <point x="155" y="531"/>
      <point x="267" y="647"/>
      <point x="420" y="647" type="curve" smooth="yes"/>
      <point x="573" y="647"/>
      <point x="685" y="531"/>
    </contour>
  </outline>
</glyph>
<glyph name="S" format="1">
  <advance width="635"/>
  <unicode hex="0053"/>
  <outline>
    <contour>
      <point x="484" y="191" type="curve" smooth="yes"/>
      <point x="484" y="92"/>
      <point x="409" y="61"/>
      <point x="325" y="61" type="curve" smooth="yes"/>
      <point x="231" y="61"/>
      <point x="158" y="102"/>
      <point x="139" y="204" type="curve"/>
      <point x="45" y="204" type="line"/>
      <point x="67" y="61"/>
      <point x="179" y="-10"/>
      <point x="325" y="-10" type="curve" smooth="yes"/>
      <point x="454" y="-10"/>
      <point x="575" y="55"/>
      <point x="575" y="194" type="curve" smooth="yes"/>
      <point x="575" y="468"/>
      <point x="167" y="342"/>
      <point x="167" y="534" type="curve" smooth="yes"/>
      <point x="167" y="607"/>
      <point x="217" y="649"/>
      <point x="312" y="649" type="curve" smooth="yes"/>
      <point x="407" y="649"/>
      <point x="448" y="603"/>
      <point x="467" y="527" type="curve"/>
      <point x="559" y="527" type="line"/>
      <point x="537" y="643"/>
      <point x="456" y="720"/>
      <point x="312" y="720" type="curve" smooth="yes"/>
      <point x="174" y="720"/>
      <point x="81" y="644"/>
      <point x="81" y="531" type="curve" smooth="yes"/>
      <point x="81" y="261"/>
      <point x="484" y="391"/>
    </contour>
  </outline>
</glyph>
<glyph name="a" format="1">
  <advance width="573"/>
  <unicode hex="0061"/>
  <outline>
    <contour>
      <point x="402" y="301" type="line"/>
      <point x="163" y="301"/>
      <point x="50" y="241"/>
      <point x="50" y="131" type="curve" smooth="yes"/>
      <point x="50" y="40"/>
      <point x="123" y="-11"/>
      <point x="217" y="-11" type="curve" smooth="yes"/>
      <point x="311" y="-11"/>
      <point x="372" y="37"/>
      <point x="401" y="106" type="curve"/>
      <point x="440" y="164"/>
      <point x="391" y="150"/>
      <point x="380" y="146" type="curve"/>
      <point x="359" y="97"/>
      <point x="311" y="56"/>
      <point x="241" y="56" type="curve" smooth="yes"/>
      <point x="177" y="56"/>
      <point x="140" y="83"/>
      <point x="140" y="131" type="curve" smooth="yes"/>
      <point x="140" y="198"/>
      <point x="212" y="242"/>
      <point x="402" y="242" type="curve"/>
    </contour>
    <contour>
      <point x="550" y="0" type="line"/>
      <point x="550" y="70" type="line"/>
      <point x="460" y="70" type="line"/>
      <point x="460" y="70" type="line"/>
      <point x="460" y="391" type="line" smooth="yes"/>
      <point x="460" y="499"/>
      <point x="371" y="538"/>
      <point x="273" y="538" type="curve" smooth="yes"/>
      <point x="165" y="538"/>
      <point x="78" y="483"/>
      <point x="67" y="381" type="curve"/>
      <point x="154" y="381" type="line"/>
      <point x="164" y="442"/>
      <point x="211" y="470"/>
      <point x="273" y="470" type="curve" smooth="yes"/>
      <point x="337" y="470"/>
      <point x="376" y="446"/>
      <point x="376" y="380" type="curve" smooth="yes"/>
      <point x="376" y="115" type="line"/>
      <point x="387" y="107" type="line"/>
      <point x="387" y="0" type="line"/>
    </contour>
  </outline>
</glyph>
<glyph name="e" format="1">
  <advance width="592"/>
  <unicode hex="0065"/>
  <outline>
    <contour>
      <point x="140" y="257" type="curve" smooth="yes"/>
      <point x="140" y="386"/>
      <point x="215" y="465"/>
      <point x="307" y="465" type="curve" smooth="yes"/>
      <point x="407" y="465"/>
      <point x="459" y="402"/>
      <point x="461" y="273" type="curve"/>
      <point x="488" y="301" type="line"/>
      <point x="110" y="301" type="line"/>
      <point x="111" y="236" type="line"/>
      <point x="552" y="236" type="line"/>
      <point x="548" y="437"/>
      <point x="461" y="537"/>
      <point x="307" y="537" type="curve" smooth="yes"/>
      <point x="166" y="537"/>
      <point x="53" y="424"/>
      <point x="53" y="260" type="curve" smooth="yes"/>
      <point x="53" y="103"/>
      <point x="172" y="-12"/>
      <point x="322" y="-12" type="curve" smooth="yes"/>
      <point x="427" y="-12"/>
      <point x="517" y="41"/>
      <point x="551" y="138" type="curve"/>
      <point x="463" y="138" type="line"/>
      <point x="438" y="87"/>
      <point x="387" y="60"/>
      <point x="322" y="60" type="curve" smooth="yes"/>
      <point x="220" y="60"/>
      <point x="140" y="141"/>
    </contour>
  </outline>
</glyph>
<glyph name="h" format="1">
  <advance width="681"/>
  <unicode hex="0068"/>
  <outline>
    <contour>
      <point x="382" y="463" type="curve" smooth="yes"/>
      <point x="455" y="463"/>
      <point x="478" y="430"/>
      <point x="478" y="364" type="curve" smooth="yes"/>
      <point x="478" y="0" type="line"/>
      <point x="563" y="0" type="line"/>
      <point x="563" y="381" type="line" smooth="yes"/>
      <point x="563" y="489"/>
      <point x="495" y="538"/>
      <point x="394" y="538" type="curve" smooth="yes"/>
      <point x="290" y="538"/>
      <point x="224" y="484"/>
      <point x="146" y="352" type="curve"/>
      <point x="184" y="326" type="line"/>
      <point x="233" y="418"/>
      <point x="303" y="463"/>
    </contour>
    <contour>
      <point x="46" y="70" type="line"/>
      <point x="46" y="0" type="line"/>
      <point x="301" y="0" type="line"/>
      <point x="301" y="70" type="line"/>
      <point x="221" y="70" type="line"/>
      <point x="221" y="70" type="line"/>
      <point x="136" y="70" type="line"/>
      <point x="136" y="70" type="line"/>
    </contour>
    <contour>
      <point x="46" y="750" type="line"/>
      <point x="46" y="676" type="line"/>
      <point x="136" y="676" type="line"/>
      <point x="136" y="676" type="line"/>
      <point x="136" y="0" type="line"/>
      <point x="221" y="0" type="line"/>
      <point x="221" y="750" type="line"/>
    </contour>
    <contour>
      <point x="653" y="70" type="line"/>
      <point x="563" y="70" type="line"/>
      <point x="563" y="70" type="line"/>
      <point x="478" y="70" type="line"/>
      <point x="478" y="70" type="line"/>
      <point x="398" y="70" type="line"/>
      <point x="398" y="0" type="line"/>
      <point x="653" y="0" type="line"/>
    </contour>
  </outline>
</glyph>
<glyph name="m" format="1">
  <advance width="975"/>
  <unicode hex="006D"/>
  <outline>
    <contour>
      <point x="370" y="463" type="curve" smooth="yes"/>
      <point x="434" y="463"/>
      <point x="454" y="430"/>
      <point x="454" y="364" type="curve" smooth="yes"/>
      <point x="454" y="0" type="line"/>
      <point x="539" y="0" type="line"/>
      <point x="539" y="381" type="line"/>
      <point x="539" y="489"/>
      <point x="476" y="538"/>
      <point x="382" y="538" type="curve" smooth="yes"/>
      <point x="283" y="538"/>
      <point x="223" y="482"/>
      <point x="146" y="352" type="curve"/>
      <point x="184" y="326" type="line"/>
      <point x="232" y="417"/>
      <point x="295" y="463"/>
    </contour>
    <contour>
      <point x="688" y="463" type="curve" smooth="yes"/>
      <point x="752" y="463"/>
      <point x="772" y="430"/>
      <point x="772" y="364" type="curve" smooth="yes"/>
      <point x="772" y="0" type="line"/>
      <point x="857" y="0" type="line"/>
      <point x="857" y="381" type="line"/>
      <point x="857" y="489"/>
      <point x="794" y="538"/>
      <point x="700" y="538" type="curve" smooth="yes"/>
      <point x="602" y="538"/>
      <point x="541" y="482"/>
      <point x="464" y="352" type="curve"/>
      <point x="502" y="326" type="line"/>
      <point x="550" y="417"/>
      <point x="614" y="463"/>
    </contour>
    <contour>
      <point x="46" y="0" type="line"/>
      <point x="296" y="0" type="line"/>
      <point x="296" y="70" type="line"/>
      <point x="221" y="70" type="line"/>
      <point x="221" y="70" type="line"/>
      <point x="136" y="70" type="line"/>
      <point x="136" y="70" type="line"/>
      <point x="46" y="70" type="line"/>
    </contour>
    <contour>
      <point x="46" y="528" type="line"/>
      <point x="46" y="454" type="line"/>
      <point x="136" y="454" type="line"/>
      <point x="136" y="454" type="line"/>
      <point x="136" y="0" type="line"/>
      <point x="221" y="0" type="line"/>
      <point x="221" y="411" type="line"/>
      <point x="210" y="420" type="line"/>
      <point x="210" y="528" type="line"/>
    </contour>
    <contour>
      <point x="379" y="0" type="line"/>
      <point x="614" y="0" type="line"/>
      <point x="614" y="70" type="line"/>
      <point x="539" y="70" type="line"/>
      <point x="539" y="70" type="line"/>
      <point x="454" y="70" type="line"/>
      <point x="454" y="70" type="line"/>
      <point x="379" y="70" type="line"/>
    </contour>
    <contour>
      <point x="947" y="0" type="line"/>
      <point x="947" y="70" type="line"/>
      <point x="857" y="70" type="line"/>
      <point x="857" y="70" type="line"/>
      <point x="772" y="70" type="line"/>
      <point x="772" y="70" type="line"/>
      <point x="697" y="70" type="line"/>
      <point x="697" y="0" type="line"/>
    </contour>
  </outline>
</glyph>
<glyph name="r" format="1">
  <advance width="473"/>
  <unicode hex="0072"/>
  <outline>
    <contour>
      <point x="210" y="528" type="line"/>
      <point x="46" y="528" type="line"/>
      <point x="46" y="454" type="line"/>
      <point x="136" y="454" type="line"/>
      <point x="136" y="454" type="line"/>
      <point x="136" y="0" type="line"/>
      <point x="221" y="0" type="line"/>
      <point x="221" y="394" type="line"/>
      <point x="210" y="392" type="line"/>
    </contour>
    <contour>
      <point x="46" y="70" type="line"/>
      <point x="46" y="0" type="line"/>
      <point x="337" y="0" type="line"/>
      <point x="337" y="70" type="line"/>
      <point x="221" y="70" type="line"/>
      <point x="221" y="70" type="line"/>
      <point x="136" y="70" type="line"/>
      <point x="136" y="70" type="line"/>
    </contour>
    <contour>
      <point x="455" y="536" type="line"/>
      <point x="445" y="538"/>
      <point x="430" y="539"/>
      <point x="414" y="539" type="curve" smooth="yes"/>
      <point x="305" y="539"/>
      <point x="238" y="479"/>
      <point x="199" y="389" type="curve"/>
      <point x="199" y="333" type="line"/>
      <point x="246" y="427"/>
      <point x="310" y="450"/>
      <point x="391" y="450" type="curve" smooth="yes"/>
      <point x="414" y="450"/>
      <point x="437" y="447"/>
      <point x="455" y="444" type="curve"/>
    </contour>
  </outline>
</glyph>
<glyph name="v" format="1">
  <advance width="602"/>
  <unicode hex="0076"/>
  <outline>
    <contour>
      <point x="253" y="528" type="line"/>
      <point x="5" y="528" type="line"/>
      <point x="5" y="458" type="line"/>
      <point x="78" y="458" type="line"/>
      <point x="78" y="458" type="line"/>
      <point x="165" y="458" type="line"/>
      <point x="165" y="458" type="line"/>
      <point x="253" y="458" type="line"/>
    </contour>
    <contour>
      <point x="330" y="0" type="line"/>
      <point x="318" y="37" type="line"/>
      <point x="140" y="528" type="line"/>
      <point x="52" y="528" type="line"/>
      <point x="249" y="0" type="line"/>
    </contour>
    <contour>
      <point x="358" y="528" type="line"/>
      <point x="358" y="458" type="line"/>
      <point x="446" y="458" type="line"/>
      <point x="446" y="458" type="line"/>
      <point x="525" y="458" type="line"/>
      <point x="525" y="458" type="line"/>
      <point x="597" y="458" type="line"/>
      <point x="597" y="528" type="line"/>
    </contour>
    <contour>
      <point x="294" y="0" type="line"/>
      <point x="353" y="0" type="line"/>
      <point x="550" y="528" type="line"/>
      <point x="471" y="528" type="line"/>
      <point x="296" y="45" type="line"/>
    </contour>
  </outline>
</glyph>
<glyph name="C.copy_1" format="1">
  <advance width="803"/>
  <outline>
    <contour>
      <point x="415" y="63" type="curve" smooth="yes"/>
      <point x="267" y="63"/>
      <point x="155" y="179"/>
      <point x="155" y="355" type="curve" smooth="yes"/>
      <point x="155" y="531"/>
      <point x="265" y="647"/>
      <point x="413" y="647" type="curve" smooth="yes"/>
      <point x="523" y="647"/>
      <point x="596" y="586"/>
      <point x="619" y="498" type="curve"/>
      <point x="725" y="498" type="line"/>
      <point x="725" y="710" type="line"/>
      <point x="650" y="710" type="line"/>
      <point x="650" y="588" type="line"/>
      <point x="655" y="579"/>
      <point x="659" y="577"/>
      <point x="662" y="582" type="curve"/>
      <point x="624" y="666"/>
      <point x="535" y="720"/>
      <point x="413" y="720" type="curve" smooth="yes"/>
      <point x="217" y="720"/>
      <point x="63" y="569"/>
      <point x="63" y="355" type="curve" smooth="yes"/>
      <point x="63" y="138"/>
      <point x="217" y="-10"/>
      <point x="415" y="-10" type="curve" smooth="yes"/>
      <point x="530" y="-10"/>
      <point x="624" y="44"/>
      <point x="662" y="138" type="curve"/>
      <point x="659" y="133"/>
      <point x="655" y="131"/>
      <point x="650" y="132" type="curve"/>
      <point x="650" y="0" type="line"/>
      <point x="725" y="0" type="line"/>
      <point x="725" y="212" type="line"/>
      <point x="624" y="212" type="line"/>
      <point x="601" y="124"/>
      <point x="518" y="63"/>
    </contour>
  </outline>
</glyph>
<glyph name="K.alt3" format="1">
  <advance width="759"/>
  <outline>
    <contour>
      <point x="153" y="0" type="line"/>
      <point x="241" y="0" type="line"/>
      <point x="241" y="710" type="line"/>
      <point x="153" y="710" type="line"/>
    </contour>
    <contour>
      <point x="53" y="70" type="line"/>
      <point x="53" y="0" type="line"/>
      <point x="341" y="0" type="line"/>
      <point x="341" y="70" type="line"/>
      <point x="241" y="70" type="line"/>
      <point x="241" y="70" type="line"/>
      <point x="153" y="70" type="line"/>
      <point x="153" y="70" type="line"/>
    </contour>
    <contour>
      <point x="53" y="710" type="line"/>
      <point x="53" y="640" type="line"/>
      <point x="153" y="640" type="line"/>
      <point x="153" y="640" type="line"/>
      <point x="241" y="640" type="line"/>
      <point x="241" y="640" type="line"/>
      <point x="341" y="640" type="line"/>
      <point x="341" y="710" type="line"/>
    </contour>
    <contour>
      <point x="431" y="70" type="line"/>
      <point x="431" y="0" type="line"/>
      <point x="734" y="0" type="line"/>
      <point x="734" y="70" type="line"/>
      <point x="651" y="70" type="line"/>
      <point x="651" y="70" type="line"/>
      <point x="540" y="70" type="line"/>
      <point x="540" y="70" type="line"/>
    </contour>
    <contour>
      <point x="416" y="710" type="line"/>
      <point x="416" y="640" type="line"/>
      <point x="512" y="640" type="line"/>
      <point x="512" y="640" type="line"/>
      <point x="606" y="640" type="line"/>
      <point x="606" y="640" type="line"/>
      <point x="687" y="640" type="line"/>
      <point x="687" y="710" type="line"/>
    </contour>
    <contour>
      <point x="275" y="361" type="line"/>
      <point x="591" y="0" type="line"/>
      <point x="703" y="0" type="line"/>
      <point x="355" y="399" type="line"/>
    </contour>
    <contour>
      <point x="230" y="319" type="line"/>
      <point x="358" y="319" type="line"/>
      <point x="340" y="348" type="line"/>
      <point x="668" y="710" type="line"/>
      <point x="573" y="710" type="line"/>
      <point x="220" y="323" type="line"/>
    </contour>
  </outline>
</glyph>
<glyph name="five.oldalt" format="1">
  <advance width="614"/>
  <outline>
    <contour>
      <point x="103" y="528" type="line"/>
      <point x="509" y="528" type="line"/>
      <point x="509" y="359" type="line"/>
      <point x="434" y="359" type="line"/>
      <point x="434" y="458" type="line"/>
      <point x="434" y="458" type="line"/>
      <point x="165" y="458" type="line"/>
      <point x="184" y="477" type="line"/>
      <point x="184" y="230" type="line"/>
      <point x="103" y="230" type="line"/>
    </contour>
    <contour>
      <point x="256" y="256" type="line" smooth="yes"/>
      <point x="466" y="256"/>
      <point x="559" y="171"/>
      <point x="559" y="34" type="curve" smooth="yes"/>
      <point x="559" y="-117"/>
      <point x="444" y="-192"/>
      <point x="308" y="-192" type="curve" smooth="yes"/>
      <point x="166" y="-192"/>
      <point x="62" y="-121"/>
      <point x="45" y="22" type="curve"/>
      <point x="137" y="22" type="line"/>
      <point x="154" y="-79"/>
      <point x="218" y="-121"/>
      <point x="308" y="-121" type="curve" smooth="yes"/>
      <point x="396" y="-121"/>
      <point x="468" y="-77"/>
      <point x="468" y="34" type="curve" smooth="yes"/>
      <point x="468" y="147"/>
      <point x="393" y="186"/>
      <point x="238" y="186" type="curve" smooth="yes"/>
      <point x="103" y="186" type="line"/>
      <point x="103" y="256" type="line"/>
    </contour>
  </outline>
</glyph>
<glyph name="five.oldalt2" format="1">
  <advance width="609"/>
  <outline>
    <contour>
      <point x="203" y="247" type="line"/>
      <point x="220" y="477" type="line"/>
      <point x="191" y="458" type="line"/>
      <point x="523" y="458" type="line"/>
      <point x="523" y="528" type="line"/>
      <point x="148" y="528" type="line"/>
      <point x="126" y="247" type="line"/>
      <point x="126" y="203" type="line"/>
      <point x="216" y="191" type="line" smooth="yes"/>
      <point x="373" y="170"/>
      <point x="467" y="125"/>
      <point x="467" y="18" type="curve" smooth="yes"/>
      <point x="467" y="-88"/>
      <point x="400" y="-131"/>
      <point x="315" y="-131" type="curve" smooth="yes"/>
      <point x="228" y="-131"/>
      <point x="162" y="-90"/>
      <point x="146" y="12" type="curve"/>
      <point x="54" y="12" type="line"/>
      <point x="71" y="-131"/>
      <point x="176" y="-202"/>
      <point x="315" y="-202" type="curve" smooth="yes"/>
      <point x="450" y="-202"/>
      <point x="558" y="-128"/>
      <point x="558" y="18" type="curve" smooth="yes"/>
      <point x="558" y="157"/>
      <point x="448" y="232"/>
      <point x="252" y="260" type="curve" smooth="yes"/>
      <point x="160" y="273" type="line"/>
    </contour>
  </outline>
</glyph>
<glyph name="j.alt" format="1">
  <advance width="349"/>
  <outline>
    <contour>
      <point x="181" y="640" type="curve" smooth="yes"/>
      <point x="214" y="640"/>
      <point x="239" y="662"/>
      <point x="239" y="698" type="curve" smooth="yes"/>
      <point x="239" y="734"/>
      <point x="214" y="756"/>
      <point x="181" y="756" type="curve" smooth="yes"/>
      <point x="148" y="756"/>
      <point x="123" y="734"/>
      <point x="123" y="698" type="curve" smooth="yes"/>
      <point x="123" y="662"/>
      <point x="148" y="640"/>
    </contour>
    <contour>
      <point x="141" y="-5" type="line" smooth="yes"/>
      <point x="141" y="-121"/>
      <point x="96" y="-170"/>
      <point x="24" y="-170" type="curve" smooth="yes"/>
      <point x="-34" y="-170"/>
      <point x="-67" y="-139"/>
      <point x="-78" y="-80" type="curve"/>
      <point x="-167" y="-80" type="line"/>
      <point x="-154" y="-182"/>
      <point x="-89" y="-245"/>
      <point x="24" y="-245" type="curve" smooth="yes"/>
      <point x="152" y="-245"/>
      <point x="226" y="-158"/>
      <point x="226" y="-5" type="curve" smooth="yes"/>
      <point x="226" y="528" type="line"/>
      <point x="41" y="528" type="line"/>
      <point x="41" y="454" type="line"/>
      <point x="141" y="454" type="line"/>
      <point x="141" y="454" type="line"/>
    </contour>
  </outline>
</glyph>
<glyph name="k.alt" format="1">
  <advance width="661"/>
  <outline>
    <contour>
      <point x="46" y="70" type="line"/>
      <point x="46" y="0" type="line"/>
      <point x="291" y="0" type="line"/>
      <point x="291" y="70" type="line"/>
      <point x="221" y="70" type="line"/>
      <point x="221" y="70" type="line"/>
      <point x="136" y="70" type="line"/>
      <point x="136" y="70" type="line"/>
    </contour>
    <contour>
      <point x="46" y="750" type="line"/>
      <point x="46" y="676" type="line"/>
      <point x="136" y="676" type="line"/>
      <point x="136" y="676" type="line"/>
      <point x="136" y="0" type="line"/>
      <point x="221" y="0" type="line"/>
      <point x="221" y="750" type="line"/>
    </contour>
    <contour>
      <point x="633" y="70" type="line"/>
      <point x="564" y="70" type="line"/>
      <point x="564" y="70" type="line"/>
      <point x="458" y="70" type="line"/>
      <point x="458" y="70" type="line"/>
      <point x="388" y="70" type="line"/>
      <point x="388" y="0" type="line"/>
      <point x="633" y="0" type="line"/>
    </contour>
    <contour>
      <point x="298" y="291" type="line"/>
      <point x="510" y="0" type="line"/>
      <point x="588" y="0" type="line"/>
      <point x="596" y="28" type="line"/>
      <point x="356" y="344" type="line"/>
    </contour>
    <contour>
      <point x="592" y="458" type="line"/>
      <point x="592" y="528" type="line"/>
      <point x="356" y="528" type="line"/>
      <point x="356" y="458" type="line"/>
      <point x="429" y="458" type="line"/>
      <point x="429" y="458" type="line"/>
      <point x="521" y="458" type="line"/>
      <point x="521" y="458" type="line"/>
    </contour>
    <contour>
      <point x="211" y="172" type="line"/>
      <point x="337" y="288" type="line"/>
      <point x="347" y="290" type="line"/>
      <point x="564" y="499" type="line"/>
      <point x="542" y="528" type="line"/>
      <point x="502" y="528" type="line"/>
      <point x="153" y="196" type="line"/>
    </contour>
  </outline>
</glyph>
<glyph name="k.alt3" format="1">
  <advance width="633"/>
  <outline>
    <contour>
      <point x="46" y="70" type="line"/>
      <point x="46" y="0" type="line"/>
      <point x="291" y="0" type="line"/>
      <point x="291" y="70" type="line"/>
      <point x="221" y="70" type="line"/>
      <point x="221" y="70" type="line"/>
      <point x="136" y="70" type="line"/>
      <point x="136" y="70" type="line"/>
    </contour>
    <contour>
      <point x="46" y="750" type="line"/>
      <point x="46" y="676" type="line"/>
      <point x="136" y="676" type="line"/>
      <point x="136" y="676" type="line"/>
      <point x="136" y="0" type="line"/>
      <point x="221" y="0" type="line"/>
      <point x="221" y="750" type="line"/>
    </contour>
    <contour>
      <point x="614" y="70" type="line"/>
      <point x="546" y="70" type="line"/>
      <point x="546" y="70" type="line"/>
      <point x="439" y="70" type="line"/>
      <point x="439" y="70" type="line"/>
      <point x="369" y="70" type="line"/>
      <point x="369" y="0" type="line"/>
      <point x="614" y="0" type="line"/>
    </contour>
    <contour>
      <point x="271" y="271" type="line"/>
      <point x="497" y="0" type="line"/>
      <point x="575" y="0" type="line"/>
      <point x="583" y="28" type="line"/>
      <point x="327" y="324" type="line"/>
    </contour>
    <contour>
      <point x="570" y="458" type="line"/>
      <point x="570" y="528" type="line"/>
      <point x="334" y="528" type="line"/>
      <point x="334" y="458" type="line"/>
      <point x="418" y="458" type="line"/>
      <point x="418" y="458" type="line"/>
      <point x="510" y="458" type="line"/>
      <point x="510" y="458" type="line"/>
    </contour>
    <contour>
      <point x="214" y="238" type="line"/>
      <point x="327" y="238" type="line"/>
      <point x="312" y="267" type="line"/>
      <point x="552" y="499" type="line"/>
      <point x="530" y="528" type="line"/>
      <point x="490" y="528" type="line"/>
      <point x="212" y="258" type="line"/>
    </contour>
  </outline>
</glyph>
<glyph name="seven.alt" format="1">
  <advance width="537"/>
  <outline>
    <contour>
      <point x="150" y="-123" type="line"/>
      <point x="423" y="533" type="line"/>
      <point x="441" y="515" type="line"/>
      <point x="127" y="515" type="line"/>
      <point x="127" y="515" type="line"/>
      <point x="127" y="383" type="line"/>
      <point x="48" y="383" type="line"/>
      <point x="48" y="587" type="line"/>
      <point x="500" y="587" type="line"/>
      <point x="500" y="521" type="line"/>
      <point x="247" y="-123" type="line"/>
    </contour>
  </outline>
</glyph>
<glyph name="two.alt" format="1">
  <advance width="592"/>
  <outline>
    <contour>
      <point x="107" y="29" type="curve"/>
      <point x="107" y="32"/>
      <point x="109" y="67"/>
      <point x="109" y="70" type="curve"/>
      <point x="452" y="70" type="line"/>
      <point x="452" y="70" type="line"/>
      <point x="452" y="178" type="line"/>
      <point x="532" y="178" type="line"/>
      <point x="532" y="0" type="line"/>
      <point x="57" y="0" type="line"/>
      <point x="57" y="72" type="line"/>
      <point x="270" y="203"/>
      <point x="405" y="303"/>
      <point x="405" y="424" type="curve" smooth="yes"/>
      <point x="405" y="488"/>
      <point x="363" y="525"/>
      <point x="296" y="525" type="curve" smooth="yes"/>
      <point x="217" y="525"/>
      <point x="176" y="476"/>
      <point x="159" y="395" type="curve"/>
      <point x="67" y="395" type="line"/>
      <point x="87" y="516"/>
      <point x="168" y="596"/>
      <point x="296" y="596" type="curve" smooth="yes"/>
      <point x="421" y="596"/>
      <point x="497" y="527"/>
      <point x="497" y="424" type="curve" smooth="yes"/>
      <point x="497" y="288"/>
      <point x="347" y="166"/>
    </contour>
  </outline>
</glyph>
